<svg width="24" height="22" viewBox="0 0 24 22" fill="none" xmlns="http://www.w3.org/2000/svg">
<path d="M19 -0.000183105H5C3.67441 0.00140475 2.40356 0.528699 1.46622 1.46604C0.528882 2.40337 0.00158786 3.67422 0 4.99982L0 16.9998C0.00158786 18.3254 0.528882 19.5963 1.46622 20.5336C2.40356 21.4709 3.67441 21.9982 5 21.9998H19C20.3256 21.9982 21.5964 21.4709 22.5338 20.5336C23.4711 19.5963 23.9984 18.3254 24 16.9998V4.99982C23.9984 3.67422 23.4711 2.40337 22.5338 1.46604C21.5964 0.528699 20.3256 0.00140475 19 -0.000183105ZM5 1.99982H19C19.5988 2.00099 20.1835 2.18133 20.679 2.51762C21.1744 2.85391 21.5579 3.33076 21.78 3.88682L14.122 11.5458C13.5584 12.1071 12.7954 12.4223 12 12.4223C11.2046 12.4223 10.4416 12.1071 9.878 11.5458L2.22 3.88682C2.44215 3.33076 2.82561 2.85391 3.32105 2.51762C3.81648 2.18133 4.40121 2.00099 5 1.99982ZM19 19.9998H5C4.20435 19.9998 3.44129 19.6837 2.87868 19.1211C2.31607 18.5585 2 17.7955 2 16.9998V6.49982L8.464 12.9598C9.40263 13.8961 10.6743 14.4219 12 14.4219C13.3257 14.4219 14.5974 13.8961 15.536 12.9598L22 6.49982V16.9998C22 17.7955 21.6839 18.5585 21.1213 19.1211C20.5587 19.6837 19.7956 19.9998 19 19.9998Z" fill="#CDCFD0"/>
</svg>
