<svg width="275" height="80" viewBox="0 0 275 80" fill="none" xmlns="http://www.w3.org/2000/svg">
<path d="M3.52716 39.7596C3.52716 39.7596 17.6357 13.2535 42.3256 13.2535C67.0155 13.2535 81.1241 39.7596 81.1241 39.7596C81.1241 39.7596 67.0155 66.2657 42.3256 66.2657C17.6357 66.2657 3.52716 39.7596 3.52716 39.7596Z" stroke="#8CC8FA" stroke-width="3" stroke-linecap="round" stroke-linejoin="round"/>
<path d="M42.3256 49.6989C48.1695 49.6989 52.907 45.2488 52.907 39.7592C52.907 34.2696 48.1695 29.8194 42.3256 29.8194C36.4816 29.8194 31.7442 34.2696 31.7442 39.7592C31.7442 45.2488 36.4816 49.6989 42.3256 49.6989Z" stroke="#8CC8FA" stroke-width="3" stroke-linecap="round" stroke-linejoin="round"/>
<path d="M89.0227 52V28.7273H98.3409C100.053 28.7273 101.481 28.9811 102.625 29.4886C103.769 29.9962 104.629 30.7008 105.205 31.6023C105.78 32.4962 106.068 33.5265 106.068 34.6932C106.068 35.6023 105.886 36.4015 105.523 37.0909C105.159 37.7727 104.659 38.3333 104.023 38.7727C103.394 39.2045 102.674 39.5114 101.864 39.6932V39.9205C102.75 39.9583 103.58 40.2083 104.352 40.6705C105.133 41.1326 105.765 41.7803 106.25 42.6136C106.735 43.4394 106.977 44.4242 106.977 45.5682C106.977 46.803 106.67 47.9053 106.057 48.875C105.451 49.8371 104.553 50.5985 103.364 51.1591C102.174 51.7197 100.708 52 98.9659 52H89.0227ZM93.9432 47.9773H97.9545C99.3258 47.9773 100.326 47.7159 100.955 47.1932C101.583 46.6629 101.898 45.9583 101.898 45.0795C101.898 44.4356 101.742 43.8674 101.432 43.375C101.121 42.8826 100.678 42.4962 100.102 42.2159C99.5341 41.9356 98.8561 41.7955 98.0682 41.7955H93.9432V47.9773ZM93.9432 38.4659H97.5909C98.2652 38.4659 98.8636 38.3485 99.3864 38.1136C99.9167 37.8712 100.333 37.5303 100.636 37.0909C100.947 36.6515 101.102 36.125 101.102 35.5114C101.102 34.6705 100.803 33.9924 100.205 33.4773C99.6136 32.9621 98.7727 32.7045 97.6818 32.7045H93.9432V38.4659ZM110.088 52V34.5455H114.781V37.5909H114.963C115.281 36.5076 115.815 35.6894 116.565 35.1364C117.315 34.5758 118.179 34.2955 119.156 34.2955C119.399 34.2955 119.66 34.3106 119.94 34.3409C120.221 34.3712 120.467 34.4129 120.679 34.4659V38.7614C120.452 38.6932 120.137 38.6326 119.736 38.5795C119.334 38.5265 118.967 38.5 118.634 38.5C117.921 38.5 117.285 38.6553 116.724 38.9659C116.171 39.2689 115.732 39.6932 115.406 40.2386C115.088 40.7841 114.929 41.4129 114.929 42.125V52H110.088ZM123.182 52V34.5455H128.023V52H123.182ZM125.614 32.2955C124.894 32.2955 124.277 32.0568 123.761 31.5795C123.254 31.0947 123 30.5152 123 29.8409C123 29.1742 123.254 28.6023 123.761 28.125C124.277 27.6402 124.894 27.3977 125.614 27.3977C126.333 27.3977 126.947 27.6402 127.455 28.125C127.97 28.6023 128.227 29.1742 128.227 29.8409C128.227 30.5152 127.97 31.0947 127.455 31.5795C126.947 32.0568 126.333 32.2955 125.614 32.2955ZM139.764 58.9091C138.196 58.9091 136.851 58.6932 135.73 58.2614C134.616 57.8371 133.73 57.2576 133.071 56.5227C132.412 55.7879 131.984 54.9621 131.787 54.0455L136.264 53.4432C136.401 53.7917 136.616 54.1174 136.912 54.4205C137.207 54.7235 137.598 54.9659 138.082 55.1477C138.575 55.3371 139.173 55.4318 139.878 55.4318C140.931 55.4318 141.798 55.1742 142.48 54.6591C143.17 54.1515 143.514 53.2992 143.514 52.1023V48.9091H143.31C143.098 49.3939 142.779 49.8523 142.355 50.2841C141.931 50.7159 141.385 51.0682 140.719 51.3409C140.052 51.6136 139.257 51.75 138.332 51.75C137.022 51.75 135.829 51.447 134.753 50.8409C133.685 50.2273 132.832 49.2917 132.196 48.0341C131.567 46.7689 131.253 45.1705 131.253 43.2386C131.253 41.2614 131.575 39.6098 132.219 38.2841C132.863 36.9583 133.719 35.9659 134.787 35.3068C135.863 34.6477 137.041 34.3182 138.321 34.3182C139.298 34.3182 140.116 34.4848 140.776 34.8182C141.435 35.1439 141.965 35.553 142.366 36.0455C142.776 36.5303 143.09 37.0076 143.31 37.4773H143.491V34.5455H148.298V52.1705C148.298 53.6553 147.935 54.8977 147.207 55.8977C146.48 56.8977 145.473 57.6477 144.185 58.1477C142.904 58.6553 141.431 58.9091 139.764 58.9091ZM139.866 48.1136C140.647 48.1136 141.306 47.9205 141.844 47.5341C142.389 47.1402 142.806 46.5795 143.094 45.8523C143.389 45.1174 143.537 44.2386 143.537 43.2159C143.537 42.1932 143.393 41.3068 143.105 40.5568C142.817 39.7992 142.401 39.2121 141.855 38.7955C141.31 38.3788 140.647 38.1705 139.866 38.1705C139.071 38.1705 138.401 38.3864 137.855 38.8182C137.31 39.2424 136.897 39.8333 136.616 40.5909C136.336 41.3485 136.196 42.2235 136.196 43.2159C136.196 44.2235 136.336 45.0947 136.616 45.8295C136.904 46.5568 137.317 47.1212 137.855 47.5227C138.401 47.9167 139.071 48.1136 139.866 48.1136ZM156.991 41.9091V52H152.151V28.7273H156.855V37.625H157.06C157.454 36.5947 158.09 35.7879 158.969 35.2045C159.848 34.6136 160.95 34.3182 162.276 34.3182C163.488 34.3182 164.545 34.5833 165.446 35.1136C166.355 35.6364 167.06 36.3902 167.56 37.375C168.067 38.3523 168.317 39.5227 168.31 40.8864V52H163.469V41.75C163.476 40.6742 163.204 39.8371 162.651 39.2386C162.105 38.6402 161.34 38.3409 160.355 38.3409C159.696 38.3409 159.113 38.4811 158.605 38.7614C158.105 39.0417 157.711 39.4508 157.423 39.9886C157.143 40.5189 156.999 41.1591 156.991 41.9091ZM181.403 34.5455V38.1818H170.892V34.5455H181.403ZM173.278 30.3636H178.119V46.6364C178.119 47.0833 178.188 47.4318 178.324 47.6818C178.46 47.9242 178.65 48.0947 178.892 48.1932C179.142 48.2917 179.43 48.3409 179.756 48.3409C179.983 48.3409 180.21 48.322 180.438 48.2841C180.665 48.2386 180.839 48.2045 180.96 48.1818L181.722 51.7841C181.479 51.8598 181.138 51.947 180.699 52.0455C180.259 52.1515 179.725 52.2159 179.097 52.2386C177.93 52.2841 176.907 52.1288 176.028 51.7727C175.157 51.4167 174.479 50.8636 173.994 50.1136C173.509 49.3636 173.271 48.4167 173.278 47.2727V30.3636ZM185.023 52V28.7273H200.705V32.7841H189.943V38.3295H199.898V42.3864H189.943V47.9432H200.75V52H185.023ZM207.514 58.5455C206.901 58.5455 206.325 58.4962 205.787 58.3977C205.257 58.3068 204.817 58.1894 204.469 58.0455L205.56 54.4318C206.128 54.6061 206.639 54.7008 207.094 54.7159C207.556 54.7311 207.954 54.625 208.287 54.3977C208.628 54.1705 208.904 53.7841 209.116 53.2386L209.401 52.5L203.139 34.5455H208.23L211.844 47.3636H212.026L215.673 34.5455H220.798L214.014 53.8864C213.688 54.8258 213.245 55.6439 212.685 56.3409C212.132 57.0455 211.431 57.5871 210.582 57.9659C209.734 58.3523 208.711 58.5455 207.514 58.5455ZM230.668 52.3409C228.872 52.3409 227.327 51.9773 226.031 51.25C224.743 50.5152 223.751 49.4773 223.054 48.1364C222.357 46.7879 222.009 45.1932 222.009 43.3523C222.009 41.5568 222.357 39.9811 223.054 38.625C223.751 37.2689 224.732 36.2121 225.997 35.4545C227.27 34.697 228.762 34.3182 230.474 34.3182C231.626 34.3182 232.698 34.5038 233.69 34.875C234.69 35.2386 235.562 35.7879 236.304 36.5227C237.054 37.2576 237.637 38.1818 238.054 39.2955C238.471 40.4015 238.679 41.697 238.679 43.1818V44.5114H223.94V41.5114H234.122C234.122 40.8144 233.971 40.197 233.668 39.6591C233.365 39.1212 232.944 38.7008 232.406 38.3977C231.876 38.0871 231.259 37.9318 230.554 37.9318C229.819 37.9318 229.168 38.1023 228.599 38.4432C228.039 38.7765 227.599 39.2273 227.281 39.7955C226.963 40.3561 226.8 40.9811 226.793 41.6705V44.5227C226.793 45.3864 226.952 46.1326 227.27 46.7614C227.596 47.3902 228.054 47.875 228.645 48.2159C229.236 48.5568 229.937 48.7273 230.747 48.7273C231.285 48.7273 231.777 48.6515 232.224 48.5C232.671 48.3485 233.054 48.1212 233.372 47.8182C233.69 47.5152 233.933 47.1439 234.099 46.7045L238.577 47C238.349 48.0758 237.884 49.0152 237.179 49.8182C236.482 50.6136 235.58 51.2348 234.474 51.6818C233.376 52.1212 232.107 52.3409 230.668 52.3409ZM256.361 39.5227L251.929 39.7955C251.853 39.4167 251.69 39.0758 251.44 38.7727C251.19 38.4621 250.861 38.2159 250.452 38.0341C250.05 37.8447 249.569 37.75 249.009 37.75C248.259 37.75 247.626 37.9091 247.111 38.2273C246.596 38.5379 246.338 38.9545 246.338 39.4773C246.338 39.8939 246.505 40.2462 246.838 40.5341C247.171 40.822 247.743 41.053 248.554 41.2273L251.713 41.8636C253.41 42.2121 254.675 42.7727 255.509 43.5455C256.342 44.3182 256.759 45.3333 256.759 46.5909C256.759 47.7348 256.421 48.7386 255.747 49.6023C255.08 50.4659 254.164 51.1402 252.997 51.625C251.838 52.1023 250.501 52.3409 248.986 52.3409C246.675 52.3409 244.834 51.8598 243.463 50.8977C242.099 49.928 241.3 48.6098 241.065 46.9432L245.827 46.6932C245.971 47.3977 246.319 47.9356 246.872 48.3068C247.425 48.6705 248.134 48.8523 248.997 48.8523C249.846 48.8523 250.527 48.6894 251.043 48.3636C251.565 48.0303 251.83 47.6023 251.838 47.0795C251.83 46.6402 251.645 46.2803 251.281 46C250.918 45.7121 250.357 45.4924 249.599 45.3409L246.577 44.7386C244.872 44.3977 243.603 43.8068 242.77 42.9659C241.944 42.125 241.531 41.053 241.531 39.75C241.531 38.6288 241.834 37.6629 242.44 36.8523C243.054 36.0417 243.914 35.4167 245.02 34.9773C246.134 34.5379 247.437 34.3182 248.929 34.3182C251.134 34.3182 252.868 34.7841 254.134 35.7159C255.406 36.6477 256.149 37.9167 256.361 39.5227Z" fill="#6EC2FB"/>
</svg>
